HIERARCHY
ROOT Hips
{
	OFFSET 0.000000 0.000000 0.000000
	CHANNELS 6 Xposition Yposition Zposition Xrotation Yrotation Zrotation
	JOINT Chest
	{
		OFFSET 0.000000 0.009282 11.569106
		CHANNELS 6 Xposition Yposition Zposition Xrotation Yrotation Zrotation
		JOINT Chest2
		{
			OFFSET 0.000000 -0.016863 9.269641
			CHANNELS 6 Xposition Yposition Zposition Xrotation Yrotation Zrotation
			JOINT Chest3
			{
				OFFSET 0.000000 0.000000 8.374491
				CHANNELS 6 Xposition Yposition Zposition Xrotation Yrotation Zrotation
				JOINT Chest4
				{
					OFFSET 0.000000 0.000000 8.374493
					CHANNELS 6 Xposition Yposition Zposition Xrotation Yrotation Zrotation
					JOINT Neck
					{
						OFFSET 0.000000 -0.000001 12.152554
						CHANNELS 6 Xposition Yposition Zposition Xrotation Yrotation Zrotation
						JOINT Head
						{
							OFFSET 0.000000 -0.040100 7.802319
							CHANNELS 6 Xposition Yposition Zposition Xrotation Yrotation Zrotation
							End Site
							{
								OFFSET 0.000000 -0.020946 14.853096
							}
						}
					}
					JOINT RightCollar
					{
						OFFSET -2.894404 0.000000 6.791374
						CHANNELS 6 Xposition Yposition Zposition Xrotation Yrotation Zrotation
						JOINT RightShoulder
						{
							OFFSET -13.574684 0.000000 0.000000
							CHANNELS 6 Xposition Yposition Zposition Xrotation Yrotation Zrotation
							JOINT RightElbow
							{
								OFFSET -23.923903 0.000000 0.000000
								CHANNELS 6 Xposition Yposition Zposition Xrotation Yrotation Zrotation
								JOINT RightWrist
								{
									OFFSET -19.846718 -0.012765 0.000000
									CHANNELS 6 Xposition Yposition Zposition Xrotation Yrotation Zrotation
									End Site
									{
										OFFSET -14.973145 0.000000 0.000000
									}
								}
							}
						}
					}
					JOINT LeftCollar
					{
						OFFSET 2.894404 0.000000 6.791374
						CHANNELS 6 Xposition Yposition Zposition Xrotation Yrotation Zrotation
						JOINT LeftShoulder
						{
							OFFSET 13.574684 0.000000 0.000000
							CHANNELS 6 Xposition Yposition Zposition Xrotation Yrotation Zrotation
							JOINT LeftElbow
							{
								OFFSET 23.923903 0.000000 0.000000
								CHANNELS 6 Xposition Yposition Zposition Xrotation Yrotation Zrotation
								JOINT LeftWrist
								{
									OFFSET 19.846718 -0.012765 0.000000
									CHANNELS 6 Xposition Yposition Zposition Xrotation Yrotation Zrotation
									End Site
									{
										OFFSET 14.973145 0.000000 0.000000
									}
								}
							}
						}
					}
				}
			}
		}
	}
	JOINT RightHip
	{
		OFFSET -9.469263 -0.004642 0.045487
		CHANNELS 6 Xposition Yposition Zposition Xrotation Yrotation Zrotation
		JOINT RightKnee
		{
			OFFSET 0.000000 -0.002666 -40.478676
			CHANNELS 6 Xposition Yposition Zposition Xrotation Yrotation Zrotation
			JOINT RightAnkle
			{
				OFFSET 0.000000 -0.049110 -35.224068
				CHANNELS 6 Xposition Yposition Zposition Xrotation Yrotation Zrotation
				JOINT RightToe
				{
					OFFSET 0.000000 -12.539530 -6.151390
					CHANNELS 6 Xposition Yposition Zposition Xrotation Yrotation Zrotation
					End Site
					{
						OFFSET 0.000000 -5.044995 -1.291870
					}
				}
			}
		}
	}
	JOINT LeftHip
	{
		OFFSET 9.469263 -0.004642 0.045487
		CHANNELS 6 Xposition Yposition Zposition Xrotation Yrotation Zrotation
		JOINT LeftKnee
		{
			OFFSET 0.000000 -0.002666 -40.478676
			CHANNELS 6 Xposition Yposition Zposition Xrotation Yrotation Zrotation
			JOINT LeftAnkle
			{
				OFFSET 0.000000 -0.049110 -35.224068
				CHANNELS 6 Xposition Yposition Zposition Xrotation Yrotation Zrotation
				JOINT LeftToe
				{
					OFFSET 0.000000 -12.539530 -6.151390
					CHANNELS 6 Xposition Yposition Zposition Xrotation Yrotation Zrotation
					End Site
					{
						OFFSET 0.000000 -5.044995 -1.291870
					}
				}
			}
		}
	}
}
MOTION
Frames: 5
Frame Time: 0.016667
-4.095970 15.687948 31.477619 2.570314 18.489949 -114.184377 -0.000001 0.009285 11.569108 10.347053 1.162031 0.393026 0.000000 -0.016863 9.269634 4.577543 0.534863 0.215106 0.000003 0.000001 8.374486 4.577545 0.534863 0.215108 0.000001 0.000001 8.374489 3.433324 0.399563 0.165341 -0.000002 -0.000004 12.152551 14.836364 0.453497 -0.854788 0.000002 -0.040101 7.802310 -8.624869 1.147241 -1.382920 -2.894407 0.000000 6.791375 -7.082469 -6.348507 -3.519300 -13.574681 0.000001 -0.000003 33.422171 -37.658214 11.771910 -23.923904 0.000002 -0.000010 60.714091 7.735956 64.928871 -19.846708 -0.012763 0.000007 -58.533826 35.149595 95.841973 2.894403 -0.000000 6.791366 -6.583835 8.445841 -2.809515 13.574684 -0.000002 -0.000011 25.432199 38.425647 -6.650374 23.923903 -0.000004 -0.000003 62.532807 4.836025 -64.856328 19.846706 -0.012771 -0.000002 -37.435307 -35.561899 -97.643886 -9.469263 -0.004639 0.045488 -42.555722 9.051831 -14.187317 0.000026 -0.007585 -40.477226 147.261501 7.392207 -0.524465 -0.000476 -0.049291 -35.223236 20.520269 -11.490163 10.498841 -0.000001 -12.539534 -6.151388 0.027258 -0.018898 0.039045 9.469263 -0.004638 0.045486 -90.243731 4.953221 5.644327 -0.000061 -0.005783 -40.476032 99.300473 7.887881 1.310143 -0.000175 -0.049145 -35.223713 8.462869 -11.181072 3.857620 0.000001 -12.539533 -6.151380 0.046104 0.046453 -0.007248 
-4.107635 15.711623 31.479794 2.516182 18.470046 -114.206773 0.000002 0.009282 11.569102 10.378122 1.204835 0.408277 -0.000000 -0.016864 9.269634 4.607775 0.537639 0.211773 -0.000001 0.000000 8.374499 4.607774 0.537638 0.211772 -0.000001 0.000000 8.374501 3.455993 0.401659 0.162893 0.000001 -0.000000 12.152561 14.790711 0.468604 -0.858139 -0.000000 -0.040102 7.802316 -8.709530 1.176450 -1.382911 -2.894405 -0.000001 6.791382 -7.111237 -6.367702 -3.514098 -13.574682 0.000000 0.000004 33.389390 -37.687830 11.721910 -23.923904 -0.000004 -0.000004 60.667181 7.815060 64.933434 -19.846716 -0.012766 0.000001 -58.511990 35.153344 95.830436 2.894405 0.000001 6.791383 -6.585971 8.426963 -2.810333 13.574688 -0.000002 0.000000 25.401468 38.412164 -6.658833 23.923895 -0.000000 -0.000005 62.517896 4.799790 -64.871354 19.846716 -0.012768 0.000002 -37.422104 -35.587167 -97.660087 -9.469262 -0.004643 0.045484 -42.594388 9.051199 -14.121822 0.000028 -0.007586 -40.477222 147.249972 7.382708 -0.535797 -0.000479 -0.049297 -35.223236 20.560821 -11.497718 10.540993 -0.000001 -12.539532 -6.151378 -0.000791 -0.006604 0.014870 9.469265 -0.004643 0.045486 -90.282390 4.933340 5.666132 -0.000060 -0.005779 -40.476040 99.306866 7.908502 1.303528 -0.000176 -0.049148 -35.223698 8.448236 -11.188458 3.862599 -0.000001 -12.539526 -6.151384 0.040606 0.044783 -0.003936 
-4.103052 15.680930 31.484442 2.547278 18.495712 -114.197047 0.000000 0.009282 11.569106 10.486473 1.178464 0.377144 -0.000000 -0.016865 9.269642 4.641160 0.539659 0.207627 0.000001 0.000000 8.374497 4.641159 0.539659 0.207628 -0.000001 0.000001 8.374494 3.481025 0.403194 0.159825 -0.000001 -0.000001 12.152553 14.731775 0.485367 -0.862031 -0.000000 -0.040101 7.802326 -8.818861 1.209014 -1.383132 -2.894406 0.000000 6.791373 -7.137687 -6.384580 -3.510659 -13.574682 0.000002 0.000002 33.333717 -37.703047 11.671379 -23.923899 -0.000005 -0.000001 60.637183 7.888310 64.944246 -19.846729 -0.012766 0.000002 -58.501445 35.158945 95.831509 2.894403 0.000000 6.791376 -6.587618 8.410694 -2.807318 13.574685 0.000000 0.000009 25.389579 38.399634 -6.691921 23.923899 -0.000003 -0.000005 62.482912 4.770085 -64.886626 19.846716 -0.012771 0.000001 -37.408885 -35.615096 -97.676855 -9.469264 -0.004642 0.045486 -42.561685 9.066511 -14.134063 0.000029 -0.007589 -40.477222 147.257635 7.399705 -0.534820 -0.000481 -0.049294 -35.223232 20.536832 -11.512911 10.533436 -0.000001 -12.539532 -6.151381 0.030916 -0.014254 0.031808 9.469263 -0.004642 0.045486 -90.246975 4.968105 5.642813 -0.000064 -0.005783 -40.476036 99.315841 7.913367 1.304791 -0.000179 -0.049139 -35.223709 8.431799 -11.190708 3.889599 0.000001 -12.539527 -6.151370 0.040381 0.042642 -0.005181 
-4.111286 15.709628 31.484854 2.490242 18.475592 -114.208563 0.000001 0.009284 11.569106 10.521319 1.215905 0.388274 -0.000000 -0.016864 9.269639 4.673450 0.541209 0.202315 0.000001 0.000000 8.374493 4.673448 0.541209 0.202317 0.000001 -0.000000 8.374495 3.505240 0.404388 0.155887 0.000000 -0.000002 12.152554 14.666221 0.501313 -0.865444 -0.000002 -0.040098 7.802316 -8.940484 1.239981 -1.382701 -2.894405 0.000002 6.791377 -7.159054 -6.401584 -3.506813 -13.574683 0.000001 -0.000007 33.297049 -37.699028 11.642683 -23.923897 0.000002 -0.000001 60.594269 7.955061 64.958289 -19.846720 -0.012769 0.000006 -58.495017 35.158303 95.840921 2.894403 0.000000 6.791378 -6.583688 8.396477 -2.803833 13.574687 -0.000001 -0.000011 25.384941 38.390472 -6.731796 23.923895 0.000000 -0.000011 62.437054 4.732896 -64.905976 19.846716 -0.012773 -0.000002 -37.400784 -35.646211 -97.688904 -9.469260 -0.004640 0.045484 -42.604948 9.069280 -14.083496 0.000025 -0.007594 -40.477230 147.248661 7.391355 -0.547814 -0.000485 -0.049294 -35.223232 20.579104 -11.524781 10.575949 0.000001 -12.539532 -6.151383 0.000704 0.000565 0.003928 9.469265 -0.004638 0.045482 -90.287670 4.952904 5.680781 -0.000062 -0.005779 -40.476040 99.313259 7.909060 1.311868 -0.000179 -0.049143 -35.223709 8.427403 -11.183241 3.879505 -0.000001 -12.539534 -6.151383 0.033349 0.036390 -0.002799 
-4.100236 15.676471 31.486139 2.512781 18.490700 -114.182383 0.000000 0.009285 11.569101 10.622471 1.189188 0.354181 0.000000 -0.016861 9.269641 4.703527 0.543680 0.196735 0.000000 0.000000 8.374491 4.703530 0.543681 0.196743 -0.000000 0.000001 8.374499 3.527797 0.406275 0.151751 -0.000001 0.000000 12.152566 14.601638 0.511784 -0.868007 0.000003 -0.040104 7.802316 -9.060354 1.260665 -1.382784 -2.894404 0.000000 6.791378 -7.173144 -6.418835 -3.507052 -13.574684 -0.000001 -0.000004 33.282054 -37.689903 11.637614 -23.923903 -0.000005 -0.000007 60.542155 8.022054 64.965426 -19.846720 -0.012759 0.000003 -58.504156 35.155086 95.857662 2.894403 -0.000000 6.791374 -6.570940 8.378748 -2.810597 13.574683 -0.000000 -0.000007 25.365190 38.385270 -6.763655 23.923899 -0.000007 0.000004 62.400444 4.693430 -64.931917 19.846714 -0.012771 -0.000003 -37.396208 -35.676602 -97.698725 -9.469261 -0.004639 0.045486 -42.587046 9.093397 -14.115358 0.000030 -0.007588 -40.477230 147.261775 7.411832 -0.548981 -0.000478 -0.049296 -35.223232 20.550113 -11.543018 10.566491 -0.000002 -12.539535 -6.151378 0.035705 -0.005687 0.020158 9.469265 -0.004640 0.045487 -90.270505 4.994569 5.660206 -0.000063 -0.005787 -40.476032 99.314461 7.911620 1.320733 -0.000175 -0.049139 -35.223721 8.423351 -11.178081 3.870602 0.000001 -12.539535 -6.151375 0.032890 0.030067 -0.004678 
